# xmcd
#
# Track frame offsets:
#	180
#	13976
#	30630
#	39979
#	91234
#	107731
#	134405
#
# Disc length: 2419 seconds
#
# Revision: 0
# Processed by: cddbd v1.5.1PL0 Copyright (c) Steve Scherf et al.
# Submitted via: dBpowerAMP V4.0
#
DISCID=53097107
DTITLE=McKenna Mendelson Blues - McKenna Mendelson Blues
DYEAR=1968
DGENRE=Blues
TTITLE0=Drive You
TTITLE1=Ramblin´ On My Mind
TTITLE2=Toilet Bowl Blues
TTITLE3=Bad Woman Are Killing Me
TTITLE4=Pretty Woman
TTITLE5=Born Under Bad Sign
TTITLE6=Help Me
EXTD=
EXTT0=
EXTT1=
EXTT2=
EXTT3=
EXTT4=
EXTT5=
EXTT6=
PLAYORDER=
